<?xml version="1.0" encoding="iso-8859-1"?>
<!-- Generator: Adobe Illustrator 19.0.0, SVG Export Plug-In . SVG Version: 6.00 Build 0)  -->
<svg version="1.1" id="Layer_1" xmlns="http://www.w3.org/2000/svg" xmlns:xlink="http://www.w3.org/1999/xlink" x="0px" y="0px"
	 viewBox="0 0 512 512" style="enable-background:new 0 0 512 512;" xml:space="preserve">
<circle style="fill:#3E4959;" cx="256" cy="256" r="256"/>
<g>
	<path style="fill:#CCCBCA;" d="M53.767,303.381c-2.943-12.552-4.71-25.58-5.262-38.73
		c-3.359-80.708,40.907-156.669,112.792-193.516l2.259,4.41C93.389,111.514,50.173,185.658,53.459,264.446
		c0.535,12.84,2.266,25.554,5.137,37.805L53.767,303.381z"/>
	<path style="fill:#CCCBCA;" d="M68.175,263.832l-4.948,0.208c-2.035-48.842,14.319-96.193,46.05-133.338l3.769,3.217
		C82.125,170.11,66.193,216.246,68.175,263.832z"/>
	<path style="fill:#CCCBCA;" d="M159.298,403.317c-47.319-31.09-76.978-83.416-79.337-139.978
		c-2.355-56.558,22.842-111.173,67.409-146.092l3.055,3.901c-43.312,33.937-67.805,87.02-65.516,141.986
		s31.116,105.825,77.111,136.04L159.298,403.317z"/>
	<path style="fill:#CCCBCA;" d="M424.065,224.705c-0.981-5.302-2.233-10.63-3.726-15.829l4.76-1.368
		c1.539,5.355,2.821,10.835,3.832,16.298L424.065,224.705z M415.11,193.473c-1.975-5.018-4.218-10.005-6.676-14.831l4.407-2.249
		c2.537,4.968,4.852,10.105,6.884,15.264L415.11,193.473z M400.361,164.517c-2.917-4.575-6.071-9.044-9.381-13.302l3.914-3.039
		c3.402,4.373,6.653,8.981,9.645,13.679L400.361,164.517z M380.393,138.864c-3.71-3.928-7.65-7.736-11.71-11.304l3.264-3.723
		c4.182,3.67,8.232,7.581,12.047,11.624L380.393,138.864z M355.962,117.416c-4.387-3.168-8.975-6.164-13.629-8.899l2.507-4.271
		c4.793,2.814,9.507,5.893,14.019,9.153L355.962,117.416z"/>
</g>
<path style="fill:#E6E5E5;" d="M216.863,95.794h-20.051l-8.417,28.044h5.183c1.853,0,3.736-0.456,5.457-1.434
	c1.734-0.981,3.102-2.342,4.063-3.924L216.863,95.794z"/>
<path style="fill:#CCCBCA;" d="M197.272,123.2c0.604-0.208,1.192-0.462,1.767-0.793c1.734-0.981,3.102-2.342,4.063-3.924
	l13.761-22.69H213.9L197.272,123.2z"/>
<path style="fill:#E6E5E5;" d="M216.863,95.794h-20.051l-8.417-28.044h5.183c1.853,0,3.736,0.459,5.457,1.434
	c1.734,0.981,3.102,2.349,4.063,3.924L216.863,95.794z"/>
<path style="fill:#CCCBCA;" d="M197.272,68.387c0.604,0.211,1.192,0.466,1.767,0.793c1.734,0.981,3.102,2.349,4.063,3.924
	l13.761,22.69H213.9L197.272,68.387z"/>
<g>
	<path style="fill:#FFFFFF;" d="M266.458,139.637h-0.344H255.25v10.141h10.864h0.344c0.373,0,0.76-0.142,1.054-0.449
		c0.297-0.294,0.439-0.674,0.439-1.064v-7.125c0-0.38-0.142-0.77-0.439-1.064C267.218,139.786,266.831,139.637,266.458,139.637z"/>
	<path style="fill:#FFFFFF;" d="M275.01,118.992h-0.314h-10.881v10.141h10.881h0.314c0.39,0,0.763-0.142,1.054-0.439
		c0.317-0.304,0.466-0.684,0.466-1.067v-7.128c0-0.377-0.149-0.776-0.466-1.067C275.773,119.141,275.4,118.992,275.01,118.992z"/>
	<path style="fill:#FFFFFF;" d="M266.458,51.953c0.373,0,0.76-0.145,1.054-0.436c0.297-0.304,0.439-0.69,0.439-1.07v-7.115
		c0-0.393-0.142-0.773-0.439-1.07c-0.294-0.304-0.68-0.449-1.054-0.449h-0.344H255.25v10.141h10.864
		C266.115,51.953,266.458,51.953,266.458,51.953z"/>
	<path style="fill:#FFFFFF;" d="M276.064,62.89c-0.291-0.291-0.664-0.439-1.054-0.439h-0.314h-10.881v10.148h10.881h0.314
		c0.39,0,0.763-0.149,1.054-0.446c0.317-0.291,0.466-0.684,0.466-1.064v-7.115C276.53,63.58,276.381,63.194,276.064,62.89z"/>
</g>
<path style="fill:#E6E5E5;" d="M233.175,19.839l6.501,2.197c1.635,0.542,3.198,1.381,4.615,2.52
	c1.427,1.136,2.573,2.484,3.478,3.951l35.903,59.197h-35.057V71.303L233.175,19.839z"/>
<path style="fill:#CCCBCA;" d="M241.251,22.67c1.064,0.495,2.074,1.116,3.039,1.883c1.427,1.136,2.573,2.484,3.478,3.951
	l35.903,59.197h-2.966L241.251,22.67z"/>
<path style="fill:#E6E5E5;" d="M233.175,171.748l6.501-2.193c1.635-0.542,3.198-1.384,4.615-2.524
	c1.427-1.136,2.573-2.477,3.478-3.947l35.903-59.197h-35.057v16.404L233.175,171.748z"/>
<path style="fill:#CCCBCA;" d="M241.251,168.92c1.064-0.495,2.074-1.117,3.039-1.886c1.427-1.136,2.573-2.477,3.478-3.947
	l35.903-59.2h-2.966L241.251,168.92z"/>
<path style="fill:#FFFFFF;" d="M313.678,87.704h-82.861c-10.887,0-20.972,2.996-29.263,8.09c8.294,5.1,18.376,8.093,29.263,8.093
	h82.861c6.636,0,12.351-3.316,14.993-8.093C326.028,91.02,320.314,87.704,313.678,87.704z"/>
<g>
	<rect x="183.33" y="94.61" style="fill:#CCCBCA;" width="36.788" height="2.382"/>
	<path style="fill:#CCCBCA;" d="M319.861,95.794c0,2.567-1.344,4.879-3.449,6.438c3.511-0.608,6.17-3.257,6.17-6.438
		c0-3.178-2.662-5.834-6.17-6.438C318.517,90.915,319.861,93.227,319.861,95.794z"/>
</g>
<g>
	<path style="fill:#16C6CC;" d="M151.41,288.893c1.13-0.512,6.775-6.438,5.711-7.535c-0.578-0.611-4.258,1.387-4.869,1.589
		c-1.389,0.526,1.355,1.327,1.373,0.997c-0.016-0.025-0.017-0.059-0.035-0.082c0.026,0.033,0.036,0.06,0.035,0.082
		c0.63,1.013-0.816,3.346-1.458,3.834c0.18-0.135,0.672-0.502-0.008,0.007C151.846,288.018,151.509,288.282,151.41,288.893z
		 M153.669,283.866c-0.068-0.009-0.068-0.022-0.043-0.035c-0.467-0.343-0.336-0.702,0.37-1.082c0.612,0.234,0.535,0.577-0.224,1.051
		C153.825,283.798,153.835,283.813,153.669,283.866z"/>
	<path style="fill:#16C6CC;" d="M155.453,276.457c-0.581,0.169-0.981,0.235-1.255,0.793
		C154.872,277.269,155.133,276.985,155.453,276.457z"/>
	<path style="fill:#16C6CC;" d="M155.243,295.31c0.043-0.015,0.081-0.037,0.124-0.051
		C154.433,295.57,154.863,295.434,155.243,295.31z"/>
	<path style="fill:#16C6CC;" d="M156.669,296.947c-1.338,0.78,5.84,1.467,5.246,1.265c2.183,0.69,2.335-2.283,1.427-3.432
		c-2.434-3.102-3.904-0.799-7.974,0.479c0.439-0.136,0.173-0.046-0.124,0.051c-1.608,0.563-2.968,1.544-4.487,2.413
		C152.431,298.476,155.219,297.842,156.669,296.947z"/>
	<path style="fill:#16C6CC;" d="M161.914,269.883c-0.142-1.117-4.084,1.255-5.016,1.661
		C157.869,271.264,161.97,270.16,161.914,269.883z"/>
	<path style="fill:#16C6CC;" d="M163.078,289.798c0.007,0.02,0.018,0.034,0.023,0.056
		C163.092,289.819,163.085,289.802,163.078,289.798z"/>
	<path style="fill:#16C6CC;" d="M163.1,289.855c-0.003,0.018-0.028,0.076-0.068,0.157C163.033,290.084,163.05,290.096,163.1,289.855
		z"/>
	<path style="fill:#16C6CC;" d="M149.735,287.741c-0.301,0.459-0.581,0.955-1.021,1.609
		C149.831,289.174,150.102,288.695,149.735,287.741z"/>
	<path style="fill:#16C6CC;" d="M172.065,410.498C173.208,410.594,171.077,410.343,172.065,410.498L172.065,410.498z"/>
	<path style="fill:#16C6CC;" d="M345.243,282.892c0.017-0.261-0.958-0.776-1.103-0.776c0.024-0.015,0.041,0.004,0.053,0.042
		C344.45,282.362,345.243,283.058,345.243,282.892z"/>
	<path style="fill:#16C6CC;" d="M206.995,299.108c-0.003,0-0.005,0-0.008-0.001C207.143,299.133,207.09,299.124,206.995,299.108z"/>
	<path style="fill:#16C6CC;" d="M206.987,299.107c-0.001,0-0.005-0.002-0.006-0.002
		C206.808,299.076,206.529,299.029,206.987,299.107z"/>
	<path style="fill:#16C6CC;" d="M427.629,346.28c-1.239,0.862,9.408,16.51,10.21,18.521c-0.04-0.106,0.806,1.837,0,0
		c3.898,9.051,8.04,17.999,11.525,27.205c0.081-0.205,0.134-0.448,0.163-0.724c-0.896-3.469-1.809-6.926-2.792-10.371
		C441.044,366.911,428.628,345.63,427.629,346.28z"/>
	<path style="fill:#16C6CC;" d="M92.249,375.128C92.025,375.118,92.424,375.118,92.249,375.128
		C93.676,375.078,90.406,375.078,92.249,375.128z"/>
	<path style="fill:#16C6CC;" d="M166.116,264.641c-0.359-0.394-3.04,1.23-3.565,1.544c0.227-0.13,0.586-0.334-0.058,0.035
		c-0.12,0.068-0.095,0.053-0.02,0.01c-0.43,0.237-0.963,0.36-1.298,1.041C161.465,267.238,167.067,265.807,166.116,264.641z"/>
	<path style="fill:#16C6CC;" d="M185.464,493.45c0.027,0.01-0.022-0.038-0.03-0.031C185.446,493.431,185.453,493.439,185.464,493.45
		z"/>
	<polygon style="fill:#16C6CC;" points="389.206,312.806 389.205,312.804 389.199,312.801 	"/>
	<path style="fill:#16C6CC;" d="M185.436,493.436c0.113,0.104,0.088,0.075,0.027,0.014
		C185.458,493.447,185.455,493.448,185.436,493.436z"/>
	<path style="fill:#16C6CC;" d="M163.078,289.798c-0.291-0.847-2.403,0.926-1.864,1.516c0.634,0.771,1.564-0.783,1.819-1.303
		C163.032,289.933,163.052,289.784,163.078,289.798z"/>
	<path style="fill:#16C6CC;" d="M189.767,294.142C191.471,294.192,188.165,294.027,189.767,294.142L189.767,294.142z"/>
	<path style="fill:#16C6CC;" d="M190.858,287.75c-0.961,0.418-2.661,1.238-2.327,1.602c0.083-0.017,0.135-0.089,0.083-0.178
		c1.625-1.615-2.702,3.534,2.864-1.678C191.031,287.907,190.772,287.874,190.858,287.75z"/>
	<path style="fill:#16C6CC;" d="M191.478,287.496c-0.375,0.063-0.565,0.176-0.62,0.254
		C191.198,287.603,191.446,287.505,191.478,287.496z"/>
	<path style="fill:#16C6CC;" d="M213.009,261.688c0.585,0,0.945,0,1.305-0.017C214.492,261.672,214.819,260.182,213.009,261.688z"/>
	<path style="fill:#16C6CC;" d="M189.423,281.323c-0.7,0.588-1.665,0.406-2.421,0.902
		C188.413,282.502,188.413,282.502,189.423,281.323z"/>
	<path style="fill:#16C6CC;" d="M154.016,302.661c-0.34,0.277-5.199,7.35-4.36,8.205c0.529,0.542,9.586-9.104,10.977-10.157
		c3.197-2.165,0.478,3.832-0.605,5.039c0.617-0.292,1.434-1.078,1.89-0.705c0.211,0.902-0.017,1.728-0.704,2.484
		c1.767-0.4,5.084-3.601,5.166-5.487c2.266,3.164,3.776-0.905,1.163-2.144C163.586,298.063,157.118,300.105,154.016,302.661z
		 M166.658,300.64c-0.631,0.335-1.042,0.202-1.237-0.329c-0.029,0.016-0.065-0.019-0.071-0.176
		C165.439,300.118,167.305,299.92,166.658,300.64z"/>
	<path style="fill:#16C6CC;" d="M218.621,283.014c1.245-0.367,2.438-0.558,3.541-1.529
		C220.834,281.897,219.499,281.683,218.621,283.014z"/>
	<path style="fill:#16C6CC;" d="M216.087,259.617c0.77-0.34,1.625,0.066,2.273-0.621
		C217.052,258.031,216.89,258.058,216.087,259.617z"/>
	<path style="fill:#16C6CC;" d="M196.41,277.23c-0.211-0.585-0.515-0.654-0.912-0.211
		C195.696,277.613,195.997,277.679,196.41,277.23z"/>
	<path style="fill:#16C6CC;" d="M201.246,287.992C201.299,288.002,201.018,287.959,201.246,287.992
		C199.948,287.787,202.167,288.22,201.246,287.992z"/>
	<path style="fill:#16C6CC;" d="M213.616,281.273c-0.429-0.575-1.057-0.803-1.866-0.704c0.423,0.558-0.918,0.737,0,0
		c-0.918,0.737-2.487,0.423-3.042,2.309C209.365,281.762,213.649,281.57,213.616,281.273z"/>
	<path style="fill:#16C6CC;" d="M167.038,306.774c1.229,1.295,12.783-0.889,5.533-1.605
		C170.582,304.954,168.676,305.354,167.038,306.774z"/>
	<path style="fill:#16C6CC;" d="M171.394,260.076l-0.059,0.069c2.263-0.624,4.747-1.262,6.6-2.811
		C175.408,257.913,173.327,258.844,171.394,260.076z"/>
	<path style="fill:#16C6CC;" d="M171.801,299.262c-0.086-0.314-0.492-0.162-0.938-0.007
		C171.15,299.563,171.474,299.579,171.801,299.262z"/>
	<path style="fill:#16C6CC;" d="M197.427,260.225c-0.621-0.043-1.192,0.172-1.652,0.595
		C194.025,261.477,197.962,261.014,197.427,260.225z"/>
	<path style="fill:#16C6CC;" d="M169.65,303.596C168.947,303.448,169.512,303.596,169.65,303.596L169.65,303.596z"/>
	<path style="fill:#16C6CC;" d="M157.498,310.834c-0.57,1.844,5.671-0.413,7.549-1.124c-0.282,0.101-0.36,0.126,0.54-0.207
		c0.826-0.284,1.658-0.618,2.57-1.51c-1.711-0.013-7.607,0.34-8.321,0.664C160.517,308.353,157.28,311.534,157.498,310.834z"/>
	<path style="fill:#16C6CC;" d="M194.719,259.704c0.014-0.007,0.024-0.014,0.039-0.02
		C194.608,259.708,194.655,259.709,194.719,259.704z"/>
	<path style="fill:#16C6CC;" d="M194.758,259.683c0.009,0.004,0.015,0.009,0.024,0.013
		C194.823,259.69,194.84,259.683,194.758,259.683z"/>
	<path style="fill:#16C6CC;" d="M194.573,260.585c0.765-0.322,0.827-0.597,0.209-0.889c-0.019,0.003-0.041,0.006-0.064,0.008
		C194.124,259.993,194.05,260.265,194.573,260.585z"/>
	<path style="fill:#16C6CC;" d="M185.436,493.436c-0.009-0.015-0.005-0.015-0.003-0.017
		C185.297,493.283,185.076,493.073,185.436,493.436z"/>
	<path style="fill:#16C6CC;" d="M229.086,295.403c-0.01,0.013-0.034,0.041-0.049,0.057c-0.55,0.676,0.453,0.357,0.709-0.089
		C230.457,294.686,229.328,295.157,229.086,295.403z"/>
	<path style="fill:#16C6CC;" d="M229.037,295.46c0.012-0.015,0.015-0.023,0.028-0.039
		C229.019,295.478,229.023,295.475,229.037,295.46z"/>
	<path style="fill:#16C6CC;" d="M229.065,295.421c0.004-0.005,0.015-0.012,0.021-0.017
		C229.093,295.394,229.091,295.395,229.065,295.421z"/>
	<path style="fill:#16C6CC;" d="M406.529,325.985c0.002,0.002,0.004,0.002,0.006,0.004
		C406.121,325.579,406.38,325.837,406.529,325.985z"/>
	<path style="fill:#16C6CC;" d="M230.576,295.775c0.005-0.047,0.01-0.095,0.014-0.141
		C230.478,295.718,230.508,295.766,230.576,295.775z"/>
	<path style="fill:#16C6CC;" d="M330.369,285.23c0,0,0.001,0,0.002,0C330.52,285.207,331.443,285.06,330.369,285.23z"/>
	<path style="fill:#16C6CC;" d="M213.114,248.276c0.006,0.008,0.014,0.013,0.02,0.021
		C212.945,248.023,213.038,248.163,213.114,248.276z"/>
	<path style="fill:#16C6CC;" d="M217.963,293.712c-0.028,0.03-0.058,0.06-0.085,0.09c0.113,0.007,0.222,0.01,0.271,0.01
		C218.093,293.755,218.029,293.73,217.963,293.712z"/>
	<path style="fill:#16C6CC;" d="M255.983,240.234c-102.722,0-187.33,77.315-198.867,176.941
		c23.774,29.3,53.882,53.251,88.254,69.748c-0.138-0.34-0.277-0.679-0.408-1.031c-1.44-5.827-7.445-15.049-12.017-18.805
		c-2.88-2.55,2.137-12.503,2.055-12.562c-2.649-1.916-3.429-2.276-1.863-6.388c0.529-1.457,1.45-3.541,1.219-5.107
		c-0.109-0.538,2.976-1.853,3.181-3.287c0.284-1.833,6.365-6.26,4.638-8.08c-1.721-1.797,1.367-7.373,0.059-9.688
		c-0.872-1.586-2.276-8.166-4.8-7.941c-3.155,0.297-2.702,6.917-4.36,6.085c-1.833-0.875-3.7-3.954-6.118-4.631
		c-1.767-0.499-1.605-4.182-4.089-5.279c-0.069,0.4-0.145,0.819-0.205,1.209c-1.909,1.295-1.427-5.279-1.427-5.718
		c0.727,0.898,1.562,1.222,2.527,1.014c0.631-0.614-1.272-3.954-2.2-3.392c-0.42,0.241-0.37,2.038-0.334,2.382
		c-2.97-0.69-2.365-5.721-3.135-6.653c-1.093-1.209-7.683-0.941-9.411-3.521c-1.282-1.86-1.962-6.253-4.406-6.755
		c-2.666-0.568-3.26,2.573-6.22,0.803c-1.344-0.803-8.357-6.957-8.357-8.334c0.023-2.322-3.475-5.48-0.73-7.604
		c0.033-0.591,0.856-3.63,1.034-4.202c1.619-5.989-1.622-12.982,0.839-18.693c0.588-1.384,2.999-12.509,2.431-12.708
		c-2.943-1.017-6.359,26.247-7.977,27.476c1.305-5.959-0.023-11.935,2.871-17.121c1.351-2.438,1.443-6.141,2.543-8.8
		c1.351-3.231,3.452-6.422,3.383-10.012c-0.043-4.876,19.961-28.249,25.22-33.561c9.887-9.933,19.78-18.676,31.76-26.086
		c7.264-4.489,14.927-8.572,22.703-12.044c3.402-1.473,6.781-2.897,10.276-4.182c1.916,1.516-0.443,1.543-1.12,2.58
		c1.711,0.72,3.221,0.406,4.621-0.727c-0.829-2.547,9.996-6.94,13.616-6.907c-0.628,0.674-1.529,0.72-2.071,1.328
		c0.704,0.882,1.519,0.109,2.266,0.211c-1.156,1.589-12.235,5.989-12.189,6.121c0.988,2.141,7.023-1.946,8.608-2.144
		c-0.624,1.635-2.425,1.11-3.32,2.144c4.297,0.826,6.207-5.054,10.762-4.532c-0.599,0.687-2.982,3.063-4.322,3.845
		c0.645-0.233,1.333-0.351,2.04-0.363c-0.585,1.245-2.421,0.839-2.851,2.534c2.52-1.153,5.371-1.731,7.502-3.63
		c-0.225-0.393-0.522-0.707-0.865-1.034c2.187-1.81,4.856-2.861,7.647-3.211c-0.885,0.793-2.114,1.107-2.821,2.141
		c2.543-0.75,4.113-2.51,7.023-2.18c-0.036,0.938-0.965,0.938-1.308,1.43c1.067,0.03,2.141-0.073,3.072-0.647
		c-0.225-0.277-0.786,0.116-1.05-0.406c0.885-0.509,1.833-0.624,2.808-0.363c-0.955,2.778,1.79,2.398,3.478,3.828
		c1.437,1.179-2.666,1.443-1.516,2.56c1.179,1.315,3.587,1.285,4.948,2.349c-0.552,0.786-4.38,2.986-5.321,2.497
		c-0.244-0.122-4.453-3.961-3.568-0.35c0.941,3.792,1.255,5.219-4.413,2.484c0.092,0.469,1.936,2.441,1.632,2.821
		c-0.535,0.75-5.946-0.994-6.246-1.774c-1.173-3.27-5.919-1.183-6.263-2.411c0.145,0.479,17.755-4.02,10.29-8.238
		c-1.361-0.773-7.062,1.245-7.934,2.808c-0.991,1.774-2.884,1.969-4.625,2.395c-0.258,0.086-3.505,0.152-3.346,0.02
		c-0.948,0.71,0.872,3.723,1.216,4.007c-1.549,1.067-6.065,0.595-7.621,0.188c0.73-0.651,2.038-0.383,2.322-1.632
		c-2.028-1.387-12.826,4.152-14.769,5.137c-5.632,2.808-5.645,4.509-8.496,8.129c0.641,0.875,4.327-0.74,3.98,2.18
		c-0.195,1.434,5.176,2.279,5.536,2.477c-1.047,1.1-1.965,2.283-2.699,3.581c0.357,0.357,1.681-0.069,1.5,0.836
		c-0.604,0.601-1.278,0.472-2.035-0.34c-1.011,1.965-0.231,4.456,1.899,3.525c2.395-1.09,2.887-2.712,4.433-5.028
		c2.464-3.686,7.647-3.102,9.804-7.297c1.288-2.547-2.091-2.2,1.718-3.941c1.698-0.77,3.326-3.297,4.383-4.81
		c2.233-3.349,8.03,1.513,9.877,2.306c-5.12,7.234,4.473,2.781,7.336,0.717c0.664,6.464,1.84,8.962,7.432,11.456
		c-0.264,0.707-1.011,0.297-1.401,0.707c0.885,0.211,4.251,1.638,3.607,2.788c-2.121,4.218-4.691,2.296-8.39,4.889
		c-4.212,2.963-10.792,0.631-15.565,1.282c-4.463,0.598-9.467,5.384-13.15,7.634c4.928,0.152,8.912-6.514,14.901-5.236
		c3.703,0.839-3.3,2.444-3.855,2.583c0.684,0.763,1.549,1.047,2.547,0.809c1.179,1.569-2.233,5.044,3.432,5.107
		c3.108,0.023,3.32-3.112,5.853-3.112c-0.03,0,0.638,1.992,0.68,2.134c-1.424,2.986-11.68,4.568-14.729,6.336
		c-2.806,1.629,1.166-4.254,3.725-5.244c0.028-0.075,0.062-0.16,0.103-0.256c-4.261,1.444-9.249,4.053-13.537,4.753
		c-2.795,0.469-4.294,3.098-4.159,5.569c-2.395,1.232-5.146,0.928-7.614,1.823c0.667,0.479,1.275,0.043,1.827,0.271
		c-2.382,1.708-5.89,3.571-8.142,4.512c0.277-0.254-1.972,5.754-2.431,3.254c-0.261-1.153-0.548-3.036,1.11-3.743
		c-2.316,0.195-1.321,4.083-3.736,2.824c0.089,0.294,2.342,2.319,0.489,2.015c-0.005-0.027-0.022-0.057-0.029-0.086
		c-0.143,0.51-0.829,1.904-0.783,1.83c-0.149,0.396,1.126,0.753,0.799,1.909c-0.344,1.13-2.157,0.486-1.975,1.546
		c0.598-0.598,1.179,0.102,1.308,0.647c-0.624,1.146-3.66,2.623-4.836,3.237c-3.686,1.989-7.32,4.387-10.643,7.072
		c-4.552,3.677-5.094,21.332-6.861,21.54c-1.298,0.122-0.816-1.533-1.506-2.273c-1.222-1.259,0.677-15.016-2.405-12.916
		c-1.982,1.325-3.984-0.892-6.656-1.083c-0.192-0.017-5.837-0.575-6.032,0.244c-0.096,0.588,1.764,0.852,1.84,0.869
		c0,0.03-0.522,2.494-0.459,2.385c-1.014,0.578-3.792-0.515-4.231-1.51c-0.644-1.232-5.361,0.667-6.237-0.291
		c0.588,0.704-5.447,4.195-5.708,4.426c-2.088,1.88-2.391,7.161-4.198,8.291c-5.979,3.62-3.941,14.118-4.641,19.436
		c-0.654,4.41,3.673,5.295,6.712,3.591c1.143-0.634,2.425,1.252,3.108-0.291c0.638-1.529,1.998-2.477,2.686-4.175
		c0.664-1.724,7.716-8.651,9.388-4.753c0.393,0.908-3.736,8.337-4.436,9.959c-1.222-0.043-1.837,1.777-2.164,4.525
		c0.02-0.172-3.112,6.623-0.377,4.387c1.371-1.169,12.516-0.284,11.343,2.606c-2.755,6.266-5.14,15.099,0.281,20.563
		c3.039,3.072,5.388-2.517,7.756-1.605c2.679,0.994,5.847,2.322,6.534,5.632c1.377-0.112,5.434-13.513,7.832-9.678
		c0.869-1.014,8.367-5.9,9.355-5.556c-0.78-0.251-0.971,6.656-1.675,7.267c-3.858,3.63,4.357,6.114,1.691,0.819
		c-1.552-2.92,0.529-3.449,2.943-4.344c1.536-0.555-0.053-3.003,1.364-2.828c-1.43-0.133,3.931,2.986,3.994,2.975
		c-0.045-0.029-0.078-0.058-0.126-0.088c0.106,0.067,0.132,0.087,0.126,0.088c2.678,1.76-0.251,3.383,4.32,2.512
		c3.634-0.723,5.665,3.363,8.988,0.585c2.289-1.876,5.136-0.178,7.459-0.981c-0.783,0.211-1.503,0.634-2.362,0.472
		c0.588,2.246,6.55,2.702,6.045,5.001c-0.476,2.157,1.678,1.88,2.96,2.425c2.956,1.222,2.894,3.273,4.674,5.183
		c1.562,1.671,6.22,5.183,8.79,3.343c2.814-1.718,13.963,2.752,14.009,6.336c0.714-0.994,5.791,9.711,5.487,10.085
		c-0.522,0.875,2.527,4.463,5.602,5.305c0.978,5.269,1.896,0.842,5.639,1.797c1.592,0.416,6.081,1.691,7.373,2.93
		c0.836,0.783,0.571,3.885,0.865,4.046c-0.178-0.073,2.329-1.239,2.15-0.988c1.073-1.47,3.954,0.271,5.021,0.601
		c2.494,0.737,5.137-0.013,7.64,0.317c4.314,0.588,6.973,4.73,10.451,6.811c4.334,2.583,6.018-0.816,7.733,5.189
		c1.12,3.914,0.756,7.891-2.144,10.973c-2.904,3.204-8.625,10.224-10.56,10.98c-3.256,1.278-0.809,17.105-3.786,22.42
		c57.076-2.201,109.353-23.081,150.9-56.71c-1.074-1.922-5.994-8.903-3.698-10.591c3.201-2.52,2.055-16.295-1.671-17.986
		c-2.14-0.935-5.328,2.742-6.801-0.069c-1.041-1.979-1.183-4.763-3.449-5.896c-3.112-1.549-14.597,6.6-16.149,5.86
		c-2.695-1.278-5.625-1.566-8.473-0.756c-3.198,0.898-5.388,3.488-8.688,1.797c-1.85-0.955-3.234-2.567-4.843-3.825
		c-4.003-3.141-9.14-5.447-10.468-10.722c-1.031-4.446-7.059-5.401-7.551-10.072c-4.053,3.24-3.706-4.76-4.195-5.89
		c-2.21-4.413-1.602-5.497-0.562-10.636c1.827-9.107-8.922-17.223-0.776-25.514c1.519-1.592-0.994-4.76,1.467-6.137
		c1.09-0.624,1.331-1.982,1.358-3.184c0.056-2.263,5.384-3.445,6.405-6.187c1.325-3.465-1.552-6.527-0.538-10.309
		c0.538-2.031,2.808-2.157,3.726-3.891c0.598-1.163-0.558-4.776,0.631-5.232c2.276-0.922,7.865,4.859,10.323,0.476
		c1.414-2.362,5.397-3.184,7.951-3.984c1.506-0.466,10.656-1.661,11.373-1.024c1.381,1.249,5.573,3.934,4.704,7.168
		c-1.093,3.812,7.178,4.545,9.302,5.255c2.544,0.859,3.33,3.858,6.108,4.122c1.962,0.175,2.887,1.49,4.456,2.368
		c2.623,1.543-3.419-10.775,1.159-7.462c2.877,2.074,6.772,4.113,10.323,4.925c0.046-0.671,0.284-1.259,0.641-1.823
		c2.207-0.773,4.149,2.59,1.229-2.93c-0.743-1.404-6.834-13.319-8.387-12.536c-0.72,0.377,0.595,1.252-0.076,1.675
		c-0.826,0.548-2.421-2.233-2.943-1.619c-0.208,0.142,0.459,1.133,0.228,1.47c-0.687,0.974-10.851-8.711-11.343-10.64
		c0.585-0.155,1.14-0.32,1.724-0.499c-0.122-0.687-0.416-1.268-0.968-1.708c0.39-0.221,0.806-0.317,1.282-0.337
		c-0.469-0.747-0.509-1.523-0.172-2.302c1.017-0.773,3.901,2.421,5.407,2.273c-0.971-3.848-7.914-9.282-11.383-10.729
		c-0.446,0.598-0.069,1.07-0.178,1.592c-0.799-1.351-2.794-1.387-3.307-3.369c0.776,0.852,1.685,1.334,2.791,1.354
		c0.786-0.661-3.125-4.046-3.475-4.393c-0.089,0.859,0,1.691,0.396,2.484c-1.229,0.783-1.853-0.723-3.009-0.793
		c1.51,4.685,7.116,11.609,11.233,13.977c0.028-0.009,0.042-0.008,0.024,0.015c-0.008-0.005-0.016-0.011-0.024-0.015
		c-0.261,0.085-2.264,1.442-1.208,1.472c-2.134-0.076-2.286,0.971-3.26,0.895c0,2.593,4.416,3.584,5.503,5.321
		c0.799,1.259,1.404,3.293,2.101,4.892c-1.562-0.538-5.5-4.046-5.45-3.994c-1.024-0.182-5.84-5.724-6.722-6.758
		c-2.276-2.666-3.049-3.647-6.147-5.275c-3.911-2.028-8.057-5.906-11.878-7.234c-2.418-0.839,1.044,3.561,1.067,3.581
		c1.932,1.671,4.38,2.976,6.375,4.595c3.256,2.593,7.903,2.94,10.777,6.483l0.024,0.015l-0.033-0.013v-0.007l0.003,0.002
		c-0.752-0.618-1.667-0.996-2.632-1.098c-0.215,1.711,2.857,3.809,3.131,5.929c0.086,0.522,0.819,3.601,0.73,4.136
		c-0.892,0.04-6.194-2.362-5.843-3.3c0.36-0.872,5.982,0.35,3.667-2.669c-1.946-2.537-4.625-4.046-7.251-5.665
		c-4.552-2.534-9.596-6.98-14.461-8.509c1.001,6.005-7.528,1.609-6.94,3.977c0.172,0.799,3.852,3.812,0.961,4.575
		c-1.856,0.515-1.407,2.068-1.661,3.462c-0.165,1.024,4.136,6.316,0.74,7.244c-2.725,0.77,2.121,1.916-3.561,2.16
		c-2.276,0.096-3.026,2.989-4.942,1.493c-2.702-2.111-2.768-1.615-5.972-2.012c-1.823-0.268-1.447-0.413-2.068-2.154
		c-0.753-1.985-3.151-2.068-3.016-4.43c0.218-3.336-2.018-4.588-2.639-7.452c-0.086-0.446-3.584-4.288,0.198-4.04
		c1.777,0.076,11.505,2.101,12.526,0.489c3.131-5.008-11.228-11.634-13.854-12.414c1.823-0.651,3.32-0.353,5.179-0.486
		c-0.254-1.037-1.268-1.41-1.761-2.134c0.129-0.116,6.507,0.799,3.789-2.352c0.058,0.08,0.846-4.882,0.674-5.395
		c-0.018-0.015-0.041-0.033-0.053-0.042c-0.05-1.407,4.06-1.833,2.332-2.808c-3.505-2.197-5.219-3.69-6.253-6.828
		c2.461,1.728,6.137,7.34,9.454,7.082c1.374-0.102,3.97,0.132,4.562-0.624c1.863-2.329,0.628-0.149,3.488-0.595
		c-0.34-2.871-5.097-4.598-5.437-6.266c0.806,0.066,1.414,0.77,2.289,0.823c-0.132-0.545-9.031-5.44-4.255-4.585
		c1.741-2.131-3.303-3.756-4.44-4.066c0.789,0.661,1.609,1.278,2.448,1.853c-6.045,4.958-13.002-7.825-19.06-8.027
		c0.519,1.539,5.051,4.892,6.279,5.976c2.464,2.124,6.038,2.316,8.311,4.42c2.514,2.355,4.142,5.219,5.199,7.733
		c-1.043,1.847-8.653-5.756-9.673-7.061c0.341,0.588,0.679,1.168,0.992,1.773c-0.03,0.02-0.06,0.053-0.03,0.086
		c-1.268,0.621-2.441-2.19-3.736-1.543c-2.008,1.11,1.576,3.257-3.194,1.668c-3.442-1.126-8.83-4.757-9.312-8.202
		c-0.201-1.582-7.839-10.405-8.344-9.771c2.365-3.224,14.168,1.136,17.345,3.138c0.05,0.426-0.416,0.182-0.505,0.426
		c0.059,0.367,5.645,2.738,7.776,3.297c-0.41-0.42-3.541-2.012-3.63-2.606c0.852,1.315,6.299,2.755,7.848,3.495
		c3.577,1.777,7.089,3.627,10.508,5.615c7.221,4.099,14.151,8.651,20.748,13.613c13.639,10.184,25.993,22.135,36.61,35.44
		c11.284,14.095,20.615,29.746,27.707,46.348c2.678,6.278,4.745,12.614,6.567,18.994c1.859,4.573,3,8.369,2.792,10.371
		c1.141,4.419,2.257,8.856,3.464,13.306l-0.02-0.02c0.802,4.288,1.398,8.524,1.807,12.735c0.035-0.043,0.069-0.087,0.104-0.13
		C443.344,317.547,358.715,240.234,255.983,240.234z M134.128,455.65c0.071,0.066,0.075,0.074,0.057,0.062
		C134.163,455.714,133.758,455.38,134.128,455.65z M108.181,447.088c-0.001,0.044-0.004,0.061-0.007,0.069
		C108.013,448.976,107.607,445.186,108.181,447.088z M105.545,444.545c0.344,0.835,0.709,1.656,1.054,2.507
		c-0.013-0.041,0.013,0.014,0.139,0.334c0.032,0.104,0.022,0.088-0.004,0.026c-0.073,0.87-0.478,1.192-1.281,0.882
		C105.155,448.056,105.01,445.156,105.545,444.545z M133.345,282.456c0.017,0,0.05,0,0.05-0.016
		C133.394,282.456,133.361,282.456,133.345,282.456z M135.27,280.847h0.02H135.27z M214.419,256.515
		c-0.988,1.11-2.005,1.301-3.155,1.265C211.856,256.75,212.45,256.489,214.419,256.515z M193.599,265.484
		c0.846-1.001,1.853-0.968,3.204-1.001C195.68,265.097,194.811,265.55,193.599,265.484z M197.008,266.659
		c0.449-0.938,1.064-1.08,1.754-1.143C198.382,266.091,197.883,266.382,197.008,266.659z M212.143,268.853
		c0.056-0.043,0.142,0.033,0.244,0.066C212.156,269.058,211.724,269.058,212.143,268.853z M204.678,297.962
		c-0.001-0.014,0.007-0.025,0.03-0.031C204.692,297.935,204.688,297.951,204.678,297.962c0.018,0.193,2.176,1.122,2.303,1.144
		c0.005,0.001,0.008,0.001,0.014,0.002c0.433,0.07,0.845-0.027,1.495-0.07C206.577,301.357,204.374,298.279,204.678,297.962z
		 M207.089,290.77c1.85-0.043,3.369,0.532,5.024,1.757C209.897,292.956,208.49,292.104,207.089,290.77z M150.201,360.078
		c0.604,2.226,0.604,3.574-0.059,4.512C149.501,362.212,148.592,362.182,150.201,360.078z M134.884,371.821
		c-0.334-0.575,0.69-2.246,1.014-1.007c0.053,0.221,0.02,0.12-0.006,0.028C135.837,371.51,135.489,371.841,134.884,371.821z
		 M144.605,382.272c1.569-0.905,3.009-0.39,4.393,0.367c0.545,0.046,0.852,0.34,0.948,0.872
		C149.603,384.951,145.101,382.91,144.605,382.272z M148.186,377.199c-1.942,0.198,1.278-1.543,1.017-2.16
		c-1.325-3.036-10.412-3.729-11.247-6.141c0.393-0.149,0.664-0.426,0.783-0.819c-3.118-1.282-4.701,2.537-7.521,2.283
		c5.853-9.89,20.325,1.444,26.152,6.005C154.32,376.743,151.245,376.776,148.186,377.199z M171.533,382.58
		c-3.531-1.51-5.487,0.595-7.977,1.995c-1.969-2.814-5.186-0.852-7.812-2.111c0.591,0.291-0.284-0.106,0,0
		c-1.447-0.628,4.803-0.581,5.639-0.915c-1.222-1.906-0.109-2.93-2.514-3.667c2.21-2.682,9.49,0.449,11.792,1.443
		c-0.188,0.36-0.651,0.033-0.875,0.459C169.971,379.934,174.797,383.908,171.533,382.58z M181.228,382.54
		C178.863,388.344,172.851,378.454,181.228,382.54L181.228,382.54z M190.523,410.839c0.069-0.155,0.211-0.225,0.436-0.244
		C190.834,410.683,190.705,410.736,190.523,410.839z M191.437,410.684c0.347,0.032,1.579,0.2-0.081-0.001
		c-0.009-0.003-0.008-0.004,0-0.004c-0.104-0.065,0.645-2.384,2.18-2.499C195.282,409.286,192.416,410.711,191.437,410.684z
		 M210.303,247.177c-0.874,0.593-0.87,0.516-0.644,0.337c-1.449,0.575-3.085,0.111-4.522,0.667
		C207.439,246.569,208.49,246.705,210.303,247.177z M203.201,249.754c-0.228,0.033-0.482,0.066-0.73,0.096
		C202.689,249.691,202.953,249.671,203.201,249.754z M201.421,250.167c0,0-0.007,0.02-0.007,0.033c0,0-0.02,0-0.05,0
		c0.026-0.011,0.03-0.025,0.043-0.029c0,0,0,0,0.001,0c0.002,0,0.004-0.004,0.006-0.004v0.002
		C201.417,250.168,201.419,250.167,201.421,250.167c0.231-0.317,0.595-0.268,0.935-0.277
		C202.105,250.233,201.787,250.282,201.421,250.167z M202.471,249.849c-0.03,0.023-0.066,0.023-0.066,0.04
		C202.247,249.889,202.442,249.849,202.471,249.849z M202.441,251.577c1.387-1.44,3.28-1.678,5.087-2.048
		C206.055,250.652,204.523,251.755,202.441,251.577z M207.182,250.827c0,0.026-0.017,0.026-0.046,0.016
		c-0.175,0.274-0.297,0.284-0.373,0.079c0.043-0.018,0.053-0.018,0.054-0.014c0.109-0.034,0.22-0.043,0.319-0.065
		c0-0.003,0.013-0.003,0.013-0.016C207.165,250.827,207.165,250.827,207.182,250.827c0.102-0.301,0.34-0.347,0.624-0.301
		C207.723,250.887,207.439,250.827,207.182,250.827z M207.836,250.497c-0.01,0.03-0.03,0.046-0.03,0
		C207.806,250.497,207.826,250.497,207.836,250.497c1.377-1.103,2.996-1.298,4.691-1.166
		C211.076,250.186,209.54,250.645,207.836,250.497z M213.134,248.297c0.086,0.133,0.038,0.063-0.02-0.021
		c-0.336-0.442-0.901-0.152-1.199-0.573c0.902-1.017,2.18-0.657,3.316-0.971C215.175,246.863,213.844,249.331,213.134,248.297z
		 M216.236,248.631c-0.275-0.039-0.608-0.095-1.037-0.185c3.472-2.616,4.264-1.136,8.582-0.71
		C222.531,248.886,219.673,249.196,216.236,248.631z M224.101,287.232c0,0.013,0,0.033,0.023,0.076
		c-0.023-0.043-0.023-0.043-0.066-0.063L224.101,287.232z M230.245,441.909c-0.563-0.463,0.34-0.392,0.046-0.056
		C230.304,441.853,230.306,441.864,230.245,441.909z M230.576,295.775c-0.191,1.905-0.757,4.299-2.888,2.192
		c0.211-0.419,0.291-0.872,0.228-1.325c-0.469-0.525-3.379,1.282-4.321,1.282c0.155-0.73,1.15-0.304,1.219-1.126
		c-1.249-0.68-8.443-0.261-8.582-0.869c-0.064-0.212,0.645-1.064,1.645-2.128c-0.243-0.015-0.495-0.049-0.216-0.115
		c-0.015,0-0.018-0.002,0.024-0.007c0.052,0,0.056,0.001,0.046,0.003c0.081,0.001,0.159,0.009,0.231,0.029
		c2.089-2.21,5.366-5.274,5.738-5.545c-1.138,0.832,0.075-0.071,0.028-0.023c0.921-0.715,1.202-1.564,3.166-1.093
		c-0.238,0.393-3.67,3.379-3.326,3.713c-0.218-0.258,4.119,0.951,3.875,1.047c3.786-1.348,1.057,1.804,3.283,2.104
		c-0.05,0.111-0.057,0.849-0.137,1.719c0.023-0.018,0.04-0.034,0.078-0.054C230.832,295.726,230.675,295.789,230.576,295.775z
		 M271.912,253.744c1.308,0.357,4.169-0.079,5.635,0.036c-3.326,3.032-8.337,2.672-12.1,5.103c-2.276,1.496-5.698,1.341-8.222,2.266
		c0,2.557-1.949,5.685-3.607,8.311c-1.199,1.833-9.685-2.391-10.554-3.465c-1.84-2.22-6.052-8.063-1.48-9.87
		c5.546-2.18,0.023-0.386-1.602-1.586c1.328-1.843,2.785-1.212,4.909-0.922c-1.077-1.477-2.411-1.86-4.027-1.067
		c-0.542-1.602,2.283-3.056-0.185-4.743c-1.077-0.737-6.947,0.119-7.112-0.905c-0.367-2.56,7.142-1.196,8.446-3.303
		c-5.524-1.166-11.474,4.148-16.858,3.461c0.129,0.022,0.152,0.029-0.19-0.016c-1.07-0.182-2.216-0.066-3.349-0.211
		c0.585-0.542,3.954-0.651,2.481-1.605c4.621-2.824,14.293-3.392,19.585-2.755c5.989,0.737,11.928-1.103,17.798-0.188
		c2.392,0.38,4.446,0.446,6.805,0.608c2.091,0.231-0.258,2.335,2.091,2.695c1.354,0.182,4.126,3.316,5.411,2.639
		c-0.096,2.187-1.037,0.651-0.347,2.715c0.152,0.459,2.603,1.833,2.504,2.012c-0.211,0.334-6.9-0.162-6.587-0.066
		C270.848,252.793,271.492,253.922,271.912,253.744z M413.491,324.126c0.786,0.591,1.14,1.206,1.044,2.21
		C413.554,325.867,413.197,325.245,413.491,324.126z M407.711,325.642c-0.41,0.307-0.819,0.704-1.176,0.347
		c0.129,0.129,0.078,0.079-0.006-0.004c-0.649-0.63-1.964-0.188-2.287-1.506C405.365,325.074,406.607,324.773,407.711,325.642z
		 M377.258,315.405c-1.374,2.131-3.647-3.313-5.041-4.159c0.482-0.337,0.998-0.71,1.43-1.15
		C374.837,310.097,377.727,314.665,377.258,315.405z M370.47,306.103c0.928-0.7,2.326,2.844,2.435,3.188l0.023,0.013
		C372.406,309.126,369.132,307.16,370.47,306.103z M365.842,315.329c-0.466-0.04-0.948-0.182-1.295-0.423
		c-0.068-0.009-0.072-0.012-0.047-0.011C363.092,314.653,367.463,313.269,365.842,315.329z M348.276,266.22
		c0.01,0.044,0.015,0.062,0.018,0.075c0.004,0.018,0.005,0.019,0,0C348.287,266.268,348.276,266.22,348.276,266.22
		C349.511,266.58,348.355,266.488,348.276,266.22z M328.06,276.563c2.897,1.394,13.322,6.372,13.656,9.523
		c0.235,1.576-7.924,0.915-9.114,2.788c-0.951-2.296,2.012-2.276,1.932-3.019c-0.092-0.538-3.736-0.674-4.164-0.624
		c-0.024,0.004-0.03,0.005-0.002,0c0.885-0.102-1.133-2.97-1.652-3.544c0.631,0.063,1.169,0.129,1.734-0.251
		c-0.456-1.305-6.303-4.671-6.689-4.433c-2.207,1.381-4.948-4.773-5.236-5.625C322.306,270.868,324.667,274.888,328.06,276.563z
		 M320.003,279.569c-1.85-4.357,4.423,0.704,5.279,1.605c0.477,0.507,0.242,0.266,0.073,0.088c3.254,3.49-1.976,6.133-4.338,3.899
		c-1.176-1.226-0.466-4.06-3.168-4.889C318.576,280.061,319.3,279.813,320.003,279.569z M317.41,274.049
		c-0.02-0.079-0.05-0.152-0.063-0.225c0.013,0.073-0.03-0.017,0,0c-0.03-0.017-0.03-0.04-0.036-0.04
		C317.41,273.808,317.443,273.897,317.41,274.049z M316.621,271.604c0.487,0.207,0.636,0.586,0.381,1.125
		c0.03-0.053,0.046-0.082-0.002,0.005c-0.238,0.426-0.01,0.743,0.314,1.047C316.951,273.616,315.544,271.882,316.621,271.604z
		 M283.932,243.646c2.966-0.324,6.544,0.823,8.615,1.417c0.675,0.201-0.956,0.316-0.91,0.386c0.02,0.007,0.028,0.011,0.005,0.007
		C289.102,244.749,286.426,244.64,283.932,243.646c-0.254,0.056-0.558,0.069-0.846,0.102
		C283.374,243.464,283.671,243.438,283.932,243.646z M294.641,261.639c-2.768,1.252-6.838,2.679-9.424,0.264
		c-0.661-0.562-4.228-1.975-4.258-2.121c0.175,0.677-0.152-0.459,0,0c-0.218-0.717,4.885-0.386,5.701-0.555
		C288.045,258.999,298.215,260.013,294.641,261.639z"/>
	<path style="fill:#16C6CC;" d="M223.729,288.143c-0.01,0.008-0.018,0.016-0.028,0.023
		C223.717,288.154,223.726,288.147,223.729,288.143z"/>
</g>
<g>
	<path style="fill:#F2F2F2;" d="M181.228,382.54C172.851,378.454,178.863,388.344,181.228,382.54L181.228,382.54z"/>
	<path style="fill:#F2F2F2;" d="M217.732,293.683c0.01-0.002,0.006-0.003-0.046-0.003c-0.042,0.005-0.039,0.007-0.024,0.007
		c-0.279,0.066-0.027,0.1,0.216,0.115c0.028-0.029,0.057-0.06,0.085-0.09C217.891,293.692,217.814,293.684,217.732,293.683z"/>
	<path style="fill:#F2F2F2;" d="M230.245,441.909c0.061-0.045,0.06-0.056,0.046-0.056
		C230.584,441.517,229.682,441.446,230.245,441.909z"/>
	<path style="fill:#F2F2F2;" d="M224.124,287.308c-0.023-0.043-0.023-0.063-0.023-0.076l-0.043,0.013
		C224.101,287.265,224.101,287.265,224.124,287.308z"/>
	<path style="fill:#F2F2F2;" d="M215.199,248.445c0.429,0.09,0.762,0.147,1.037,0.185c3.438,0.565,6.295,0.255,7.545-0.895
		C219.463,247.309,218.67,245.829,215.199,248.445z"/>
	<path style="fill:#F2F2F2;" d="M211.915,247.702c0.298,0.422,0.863,0.131,1.199,0.573c-0.077-0.113-0.169-0.252,0.02,0.021
		c0.71,1.034,2.041-1.434,2.098-1.566C214.095,247.045,212.817,246.685,211.915,247.702z"/>
	<path style="fill:#F2F2F2;" d="M230.59,295.634c-0.004,0.047-0.009,0.094-0.014,0.141c0.099,0.014,0.256-0.049,0.092-0.196
		C230.63,295.6,230.613,295.616,230.59,295.634z"/>
	<path style="fill:#F2F2F2;" d="M223.701,288.167c0.01-0.008,0.018-0.016,0.028-0.023
		C223.776,288.096,222.563,288.999,223.701,288.167z"/>
	<path style="fill:#F2F2F2;" d="M230.59,295.634c0.08-0.87,0.087-1.608,0.137-1.719c-2.226-0.301,0.502-3.452-3.283-2.104
		c0.244-0.096-4.093-1.305-3.875-1.047c-0.344-0.334,3.089-3.32,3.326-3.713c-1.964-0.471-2.246,0.378-3.166,1.093
		c-0.003,0.003-0.012,0.011-0.028,0.023c-0.372,0.271-3.649,3.335-5.738,5.545c0.066,0.018,0.129,0.043,0.185,0.1
		c-0.049,0-0.158-0.003-0.271-0.01c-1,1.064-1.71,1.916-1.645,2.128c0.139,0.608,7.333,0.188,8.582,0.869
		c-0.069,0.822-1.064,0.396-1.219,1.126c0.941,0,3.852-1.807,4.321-1.282c0.063,0.453-0.017,0.905-0.228,1.325
		c2.131,2.107,2.697-0.287,2.888-2.192C230.508,295.766,230.478,295.718,230.59,295.634z M229.746,295.371
		c-0.255,0.446-1.259,0.765-0.709,0.089c-0.014,0.015-0.018,0.018,0.028-0.039c0.025-0.026,0.027-0.027,0.021-0.017
		C229.328,295.157,230.457,294.686,229.746,295.371z"/>
	<path style="fill:#F2F2F2;" d="M229.065,295.421c-0.014,0.016-0.016,0.024-0.028,0.039c0.015-0.016,0.039-0.044,0.049-0.057
		C229.081,295.409,229.07,295.415,229.065,295.421z"/>
	<path style="fill:#F2F2F2;" d="M202.441,251.577c2.081,0.178,3.614-0.925,5.087-2.048
		C205.722,249.899,203.829,250.137,202.441,251.577z"/>
	<path style="fill:#F2F2F2;" d="M202.405,249.889c0-0.017,0.036-0.017,0.066-0.04C202.442,249.849,202.247,249.889,202.405,249.889z
		"/>
	<path style="fill:#F2F2F2;" d="M213.134,248.297c-0.006-0.009-0.014-0.013-0.02-0.021
		C213.172,248.36,213.22,248.43,213.134,248.297z"/>
	<path style="fill:#F2F2F2;" d="M201.414,250.167c-0.002,0-0.004,0.003-0.006,0.004c0,0,0,0-0.001,0
		c-0.013,0.004-0.017,0.017-0.043,0.029c0.03,0,0.05,0,0.05,0c0-0.013,0.007-0.033,0.007-0.033c-0.002,0-0.004,0.002-0.007,0.002
		V250.167z"/>
	<path style="fill:#F2F2F2;" d="M206.762,250.923c0.076,0.205,0.198,0.195,0.373-0.079c-0.099,0.023-0.21,0.031-0.319,0.065
		C206.815,250.905,206.805,250.905,206.762,250.923z"/>
	<path style="fill:#F2F2F2;" d="M271.357,252.888c-0.314-0.096,6.375,0.4,6.587,0.066c0.099-0.178-2.352-1.552-2.504-2.012
		c-0.69-2.065,0.251-0.529,0.347-2.715c-1.285,0.677-4.056-2.458-5.411-2.639c-2.349-0.36,0-2.464-2.091-2.695
		c-2.359-0.162-4.413-0.228-6.805-0.608c-5.87-0.915-11.809,0.925-17.798,0.188c-5.292-0.638-14.964-0.069-19.585,2.755
		c1.473,0.955-1.896,1.064-2.481,1.605c1.133,0.145,2.279,0.03,3.349,0.211c0.342,0.045,0.319,0.038,0.19,0.016
		c5.384,0.687,11.334-4.627,16.858-3.461c-1.305,2.107-8.813,0.743-8.446,3.303c0.165,1.024,6.035,0.169,7.112,0.905
		c2.468,1.688-0.357,3.141,0.185,4.743c1.615-0.793,2.95-0.41,4.027,1.067c-2.124-0.291-3.581-0.922-4.909,0.922
		c1.625,1.199,7.148-0.595,1.602,1.586c-4.572,1.807-0.36,7.65,1.48,9.87c0.869,1.074,9.355,5.298,10.554,3.465
		c1.658-2.626,3.607-5.754,3.607-8.311c2.524-0.925,5.946-0.77,8.222-2.266c3.762-2.431,8.773-2.071,12.1-5.103
		c-1.467-0.116-4.327,0.32-5.635-0.036C271.492,253.922,270.848,252.793,271.357,252.888z"/>
	<path style="fill:#F2F2F2;" d="M169.555,406.356c0.048,0.029,0.081,0.058,0.126,0.088
		C169.686,406.443,169.66,406.423,169.555,406.356z"/>
	<path style="fill:#F2F2F2;" d="M207.836,250.497c-0.01,0-0.03,0-0.03,0C207.806,250.543,207.826,250.527,207.836,250.497z"/>
	<path style="fill:#F2F2F2;" d="M207.182,250.827c0.258,0,0.542,0.059,0.624-0.301C207.522,250.48,207.284,250.527,207.182,250.827z
		"/>
	<path style="fill:#F2F2F2;" d="M207.135,250.844c0.03,0.01,0.046,0.01,0.046-0.016c-0.017,0-0.017,0-0.033,0
		C207.149,250.84,207.135,250.84,207.135,250.844z"/>
	<path style="fill:#F2F2F2;" d="M348.276,266.22C348.355,266.488,349.511,266.58,348.276,266.22L348.276,266.22z"/>
	<path style="fill:#F2F2F2;" d="M317.315,273.781c-0.324-0.304-0.552-0.621-0.314-1.047c0.048-0.087,0.031-0.058,0.002-0.005
		c0.254-0.539,0.106-0.917-0.381-1.125C315.544,271.882,316.951,273.616,317.315,273.781z"/>
	<path style="fill:#F2F2F2;" d="M317.347,273.824c0.013,0.073,0.043,0.145,0.063,0.225c0.033-0.152,0-0.241-0.099-0.264
		C317.318,273.785,317.318,273.808,317.347,273.824z"/>
	<path style="fill:#F2F2F2;" d="M317.347,273.824C317.318,273.808,317.361,273.897,317.347,273.824L317.347,273.824z"/>
	<path style="fill:#F2F2F2;" d="M321.017,285.161c2.362,2.234,7.592-0.409,4.338-3.899c0.168,0.178,0.404,0.419-0.073-0.088
		c-0.856-0.902-7.128-5.962-5.279-1.605c-0.704,0.244-1.427,0.492-2.154,0.704C320.552,281.101,319.841,283.935,321.017,285.161z"/>
	<path style="fill:#F2F2F2;" d="M286.661,259.227c-0.816,0.168-5.919-0.162-5.701,0.555c0.03,0.145,3.597,1.559,4.258,2.121
		c2.586,2.415,6.656,0.988,9.424-0.264C298.215,260.013,288.045,258.999,286.661,259.227z"/>
	<path style="fill:#F2F2F2;" d="M280.959,259.782C280.807,259.323,281.134,260.459,280.959,259.782L280.959,259.782z"/>
	<path style="fill:#F2F2F2;" d="M283.086,243.748c0.287-0.033,0.591-0.046,0.846-0.102
		C283.671,243.438,283.374,243.464,283.086,243.748z"/>
	<path style="fill:#F2F2F2;" d="M323.762,277.002c0.386-0.238,6.233,3.128,6.689,4.433c-0.565,0.38-1.103,0.314-1.734,0.251
		c0.519,0.575,2.537,3.442,1.652,3.544c1.074-0.17,0.151-0.024,0.002,0c0.428-0.049,4.071,0.086,4.164,0.624
		c0.079,0.743-2.884,0.723-1.932,3.019c1.189-1.873,9.348-1.212,9.114-2.788c-0.334-3.151-10.759-8.129-13.656-9.523
		c-3.392-1.675-5.754-5.695-9.533-5.186C318.814,272.229,321.556,278.383,323.762,277.002z"/>
	<path style="fill:#F2F2F2;" d="M291.637,245.449c-0.046-0.07,1.585-0.185,0.91-0.386c-2.071-0.595-5.648-1.741-8.615-1.417
		c2.494,0.994,5.17,1.103,7.71,1.81C291.665,245.46,291.657,245.456,291.637,245.449z"/>
	<path style="fill:#F2F2F2;" d="M406.535,325.989c-0.002-0.002-0.004-0.002-0.006-0.004
		C406.613,326.068,406.663,326.117,406.535,325.989z"/>
	<path style="fill:#F2F2F2;" d="M406.529,325.985c-0.149-0.148-0.408-0.406,0.006,0.004c0.357,0.357,0.766-0.04,1.176-0.347
		c-1.103-0.869-2.345-0.568-3.468-1.163C404.565,325.797,405.88,325.354,406.529,325.985z"/>
	<path style="fill:#F2F2F2;" d="M377.258,315.405c0.469-0.74-2.421-5.308-3.61-5.308c-0.433,0.439-0.948,0.813-1.43,1.15
		C373.611,312.092,375.884,317.536,377.258,315.405z"/>
	<path style="fill:#F2F2F2;" d="M372.928,309.304l-0.023-0.013c-0.109-0.344-1.506-3.888-2.435-3.188
		C369.132,307.16,372.406,309.126,372.928,309.304z"/>
	<path style="fill:#F2F2F2;" d="M414.535,326.336c0.096-1.004-0.258-1.619-1.044-2.21
		C413.197,325.245,413.554,325.867,414.535,326.336z"/>
	<path style="fill:#F2F2F2;" d="M364.547,314.906c0.347,0.241,0.829,0.383,1.295,0.423c1.62-2.061-2.75-0.677-1.342-0.434
		C364.475,314.895,364.479,314.897,364.547,314.906z"/>
	<path style="fill:#F2F2F2;" d="M348.293,266.295C348.298,266.314,348.297,266.313,348.293,266.295L348.293,266.295z"/>
	<path style="fill:#F2F2F2;" d="M202.356,249.889c-0.34,0.01-0.704-0.04-0.935,0.277
		C201.787,250.282,202.105,250.233,202.356,249.889z"/>
	<path style="fill:#F2F2F2;" d="M330.37,285.23c0,0-0.001,0-0.002,0C330.34,285.235,330.346,285.234,330.37,285.23z"/>
	<path style="fill:#F2F2F2;" d="M348.276,266.22c0,0,0.011,0.047,0.018,0.075C348.29,266.282,348.286,266.265,348.276,266.22z"/>
	<path style="fill:#F2F2F2;" d="M207.836,250.497c1.704,0.149,3.24-0.31,4.691-1.166
		C210.832,249.199,209.213,249.394,207.836,250.497z"/>
	<path style="fill:#F2F2F2;" d="M134.184,455.712c0.018,0.012,0.014,0.004-0.057-0.062
		C133.758,455.38,134.163,455.714,134.184,455.712z"/>
	<path style="fill:#F2F2F2;" d="M269.821,489.366c1.936-0.756,7.657-7.776,10.56-10.98c2.9-3.082,3.264-7.059,2.144-10.973
		c-1.714-6.005-3.399-2.606-7.733-5.189c-3.478-2.081-6.137-6.223-10.451-6.811c-2.504-0.33-5.146,0.419-7.64-0.317
		c-1.067-0.33-3.947-2.071-5.021-0.601c0.178-0.251-2.329,0.915-2.15,0.988c-0.294-0.162-0.03-3.264-0.865-4.046
		c-1.292-1.239-5.781-2.514-7.373-2.93c-3.743-0.955-4.661,3.472-5.639-1.797c-3.075-0.842-6.124-4.43-5.602-5.305
		c0.304-0.373-4.773-11.079-5.487-10.085c-0.046-3.584-11.195-8.053-14.009-6.336c-2.57,1.84-7.227-1.671-8.79-3.343
		c-1.78-1.909-1.718-3.961-4.674-5.183c-1.282-0.545-3.435-0.268-2.96-2.425c0.505-2.299-5.457-2.755-6.045-5.001
		c0.859,0.162,1.579-0.261,2.362-0.472c-2.322,0.803-5.17-0.895-7.459,0.981c-3.323,2.778-5.355-1.308-8.988-0.585
		c-4.571,0.871-1.642-0.752-4.32-2.512c-0.063,0.011-5.424-3.107-3.994-2.975c-1.417-0.175,0.172,2.273-1.364,2.828
		c-2.415,0.895-4.496,1.424-2.943,4.344c2.666,5.295-5.549,2.811-1.691-0.819c0.704-0.611,0.895-7.518,1.675-7.267
		c-0.988-0.344-8.486,4.542-9.355,5.556c-2.398-3.835-6.455,9.566-7.832,9.678c-0.687-3.31-3.855-4.638-6.534-5.632
		c-2.368-0.912-4.717,4.677-7.756,1.605c-5.421-5.464-3.036-14.296-0.281-20.563c1.173-2.89-9.972-3.776-11.343-2.606
		c-2.735,2.236,0.396-4.558,0.377-4.387c0.327-2.748,0.941-4.568,2.164-4.525c0.7-1.622,4.829-9.051,4.436-9.959
		c-1.671-3.898-8.724,3.029-9.388,4.753c-0.687,1.698-2.048,2.646-2.686,4.175c-0.684,1.543-1.965-0.344-3.108,0.291
		c-3.039,1.704-7.366,0.819-6.712-3.591c0.7-5.318-1.338-15.816,4.641-19.436c1.807-1.13,2.111-6.412,4.198-8.291
		c0.261-0.231,6.296-3.723,5.708-4.426c0.875,0.958,5.592-0.941,6.237,0.291c0.439,0.994,3.217,2.088,4.231,1.51
		c-0.063,0.109,0.459-2.355,0.459-2.385c-0.076-0.016-1.936-0.281-1.84-0.869c0.195-0.819,5.84-0.261,6.032-0.244
		c2.672,0.192,4.674,2.408,6.656,1.083c3.082-2.101,1.183,11.657,2.405,12.916c0.69,0.74,0.208,2.395,1.506,2.273
		c1.767-0.208,2.309-17.864,6.861-21.54c3.323-2.686,6.957-5.084,10.643-7.072c1.176-0.614,4.212-2.091,4.836-3.237
		c-0.129-0.545-0.71-1.245-1.308-0.647c-0.182-1.06,1.632-0.416,1.975-1.546c0.327-1.156-0.948-1.513-0.799-1.909
		c-0.046,0.074,0.641-1.32,0.783-1.83c0.007,0.029,0.025,0.059,0.029,0.086c1.853,0.304-0.4-1.721-0.489-2.015
		c2.415,1.259,1.42-2.629,3.736-2.824c-1.658,0.707-1.371,2.59-1.11,3.743c0.459,2.501,2.709-3.508,2.431-3.254
		c2.253-0.941,5.761-2.804,8.142-4.512c-0.552-0.228-1.159,0.208-1.827-0.271c2.468-0.895,5.219-0.591,7.614-1.823
		c-0.135-2.471,1.364-5.1,4.159-5.569c4.288-0.7,9.275-3.31,13.537-4.753c-0.042,0.097-0.075,0.181-0.103,0.256
		c-2.559,0.99-6.531,6.873-3.725,5.244c3.049-1.767,13.305-3.349,14.729-6.336c-0.043-0.142-0.71-2.134-0.68-2.134
		c-2.534,0-2.745,3.135-5.853,3.112c-5.665-0.063-2.253-3.538-3.432-5.107c-0.998,0.238-1.863-0.046-2.547-0.809
		c0.555-0.139,7.558-1.744,3.855-2.583c-5.989-1.278-9.972,5.388-14.901,5.236c3.683-2.25,8.687-7.036,13.15-7.634
		c4.773-0.651,11.353,1.681,15.565-1.282c3.7-2.593,6.27-0.671,8.39-4.889c0.644-1.149-2.722-2.576-3.607-2.788
		c0.39-0.41,1.136,0,1.401-0.707c-5.592-2.494-6.768-4.991-7.432-11.456c-2.864,2.065-12.456,6.517-7.336-0.717
		c-1.846-0.793-7.644-5.655-9.877-2.306c-1.057,1.513-2.685,4.04-4.383,4.81c-3.809,1.741-0.429,1.394-1.718,3.941
		c-2.157,4.195-7.34,3.61-9.804,7.297c-1.546,2.316-2.038,3.938-4.433,5.028c-2.131,0.932-2.91-1.559-1.899-3.525
		c0.756,0.813,1.43,0.941,2.035,0.34c0.182-0.905-1.143-0.479-1.5-0.836c0.733-1.298,1.652-2.481,2.699-3.581
		c-0.36-0.198-5.731-1.044-5.536-2.477c0.347-2.92-3.34-1.305-3.98-2.18c2.851-3.62,2.864-5.321,8.496-8.129
		c1.942-0.984,12.741-6.524,14.769-5.137c-0.284,1.249-1.592,0.981-2.322,1.632c1.556,0.406,6.071,0.879,7.621-0.188
		c-0.344-0.284-2.164-3.297-1.216-4.007c-0.159,0.132,3.089,0.066,3.346-0.02c1.741-0.426,3.634-0.621,4.625-2.395
		c0.872-1.562,6.573-3.581,7.934-2.808c7.465,4.218-10.144,8.717-10.29,8.238c0.344,1.229,5.09-0.859,6.263,2.411
		c0.301,0.78,5.711,2.524,6.246,1.774c0.304-0.38-1.539-2.352-1.632-2.821c5.668,2.735,5.355,1.308,4.413-2.484
		c-0.885-3.61,3.323,0.228,3.568,0.35c0.941,0.489,4.77-1.711,5.321-2.497c-1.361-1.064-3.769-1.034-4.948-2.349
		c-1.149-1.117,2.953-1.381,1.516-2.56c-1.688-1.43-4.433-1.05-3.478-3.828c-0.974-0.261-1.922-0.145-2.808,0.363
		c0.264,0.522,0.826,0.129,1.05,0.406c-0.931,0.575-2.005,0.677-3.072,0.647c0.344-0.492,1.272-0.492,1.308-1.43
		c-2.91-0.33-4.479,1.43-7.023,2.18c0.707-1.034,1.936-1.348,2.821-2.141c-2.791,0.35-5.46,1.401-7.647,3.211
		c0.344,0.327,0.641,0.641,0.865,1.034c-2.131,1.899-4.981,2.477-7.502,3.63c0.429-1.695,2.266-1.288,2.851-2.534
		c-0.707,0.013-1.394,0.13-2.04,0.363c1.341-0.782,3.723-3.158,4.322-3.845c-4.555-0.522-6.464,5.358-10.762,4.532
		c0.895-1.034,2.695-0.509,3.32-2.144c-1.586,0.198-7.621,4.284-8.608,2.144c-0.046-0.132,11.033-4.532,12.189-6.121
		c-0.747-0.102-1.562,0.671-2.266-0.211c0.542-0.608,1.444-0.654,2.071-1.328c-3.62-0.033-14.445,4.36-13.616,6.907
		c-1.401,1.133-2.91,1.447-4.621,0.727c0.677-1.037,3.036-1.064,1.12-2.58c-3.495,1.285-6.874,2.709-10.276,4.182
		c-7.776,3.472-15.439,7.555-22.703,12.044c-11.981,7.409-21.874,16.153-31.76,26.086c-5.259,5.312-25.263,28.685-25.22,33.561
		c0.069,3.591-2.031,6.781-3.383,10.012c-1.1,2.659-1.192,6.362-2.543,8.8c-2.894,5.186-1.566,11.162-2.871,17.121
		c1.619-1.229,5.034-28.494,7.977-27.476c0.568,0.198-1.843,11.323-2.431,12.708c-2.461,5.711,0.78,12.704-0.839,18.693
		c-0.178,0.571-1.001,3.61-1.034,4.202c-2.745,2.124,0.753,5.282,0.73,7.604c0,1.377,7.013,7.531,8.357,8.334
		c2.96,1.771,3.554-1.371,6.22-0.803c2.444,0.502,3.125,4.895,4.406,6.755c1.728,2.58,8.318,2.312,9.411,3.521
		c0.77,0.932,0.165,5.962,3.135,6.653c-0.036-0.344-0.086-2.141,0.334-2.382c0.928-0.562,2.831,2.778,2.2,3.392
		c-0.965,0.208-1.8-0.116-2.527-1.014c0,0.439-0.482,7.013,1.427,5.718c0.06-0.39,0.135-0.809,0.205-1.209
		c2.484,1.097,2.322,4.78,4.089,5.279c2.418,0.677,4.284,3.756,6.118,4.631c1.658,0.832,1.206-5.787,4.36-6.085
		c2.524-0.225,3.928,6.355,4.8,7.941c1.308,2.316-1.78,7.891-0.059,9.688c1.728,1.82-4.354,6.246-4.638,8.08
		c-0.205,1.434-3.29,2.748-3.181,3.287c0.231,1.566-0.69,3.65-1.219,5.107c-1.566,4.112-0.786,4.473,1.863,6.388
		c0.083,0.06-4.935,10.012-2.055,12.562c4.572,3.756,10.577,12.978,12.017,18.805c0.132,0.352,0.27,0.691,0.408,1.031
		C178.856,502.994,216.375,512,256,512c3.362,0,6.704-0.085,10.035-0.214C269.012,506.472,266.565,490.645,269.821,489.366z
		 M222.162,281.484c-1.103,0.971-2.296,1.163-3.541,1.529C219.499,281.683,220.834,281.897,222.162,281.484z M211.75,280.569
		c0.809-0.099,1.437,0.129,1.866,0.704c0.033,0.297-4.251,0.489-4.909,1.605C209.263,280.992,210.832,281.306,211.75,280.569z
		 M201.246,287.992C202.167,288.22,199.948,287.787,201.246,287.992L201.246,287.992z M196.41,277.23
		c-0.413,0.449-0.714,0.383-0.912-0.211C195.894,276.576,196.198,276.645,196.41,277.23z M189.767,294.142
		C188.165,294.027,191.471,294.192,189.767,294.142L189.767,294.142z M191.478,287.496c-5.566,5.212-1.239,0.063-2.864,1.678
		c0.053,0.089,0,0.162-0.083,0.178c-0.335-0.364,1.366-1.185,2.327-1.602C190.913,287.672,191.103,287.559,191.478,287.496z
		 M189.423,281.323c-1.011,1.179-1.011,1.179-2.421,0.902C187.759,281.729,188.723,281.911,189.423,281.323z M214.313,261.672
		c-0.36,0.017-0.72,0.017-1.305,0.017C214.819,260.182,214.492,261.672,214.313,261.672z M218.36,258.996
		c-0.647,0.687-1.503,0.281-2.273,0.621C216.89,258.058,217.052,258.031,218.36,258.996z M195.776,260.819
		c0.459-0.423,1.031-0.638,1.652-0.595C197.962,261.014,194.025,261.477,195.776,260.819z M194.719,259.704
		c-0.064,0.006-0.111,0.005,0.039-0.02c0.082,0,0.065,0.007,0.024,0.013c0.618,0.292,0.556,0.567-0.209,0.889
		C194.05,260.265,194.124,259.993,194.719,259.704z M165.587,309.502c-0.9,0.333-0.822,0.308-0.54,0.207
		c-1.878,0.712-8.119,2.968-7.549,1.124c-0.218,0.7,3.019-2.481,2.339-2.177c0.714-0.324,6.61-0.677,8.321-0.664
		C167.246,308.885,166.413,309.218,165.587,309.502z M167.038,306.774c1.638-1.42,3.544-1.82,5.533-1.605
		C179.821,305.885,168.266,308.069,167.038,306.774z M171.394,260.076c1.932-1.232,4.013-2.164,6.54-2.742
		c-1.853,1.549-4.337,2.187-6.6,2.811L171.394,260.076z M171.801,299.262c-0.327,0.317-0.651,0.301-0.938-0.007
		C171.309,299.1,171.715,298.949,171.801,299.262z M169.65,303.596C169.512,303.596,168.947,303.448,169.65,303.596L169.65,303.596z
		 M166.38,302.04c-0.083,1.886-3.399,5.087-5.166,5.487c0.687-0.756,0.915-1.582,0.704-2.484c-0.456-0.372-1.273,0.414-1.89,0.705
		c1.083-1.208,3.802-7.205,0.605-5.039c-1.391,1.054-10.448,10.699-10.977,10.157c-0.839-0.856,4.02-7.928,4.36-8.205
		c3.102-2.557,9.569-4.598,13.527-2.765C170.156,301.135,168.646,305.205,166.38,302.04z M162.473,266.23
		c-0.075,0.043-0.1,0.058,0.02-0.01c0.644-0.368,0.285-0.165,0.058-0.035c0.526-0.314,3.206-1.938,3.565-1.544
		c0.951,1.166-4.651,2.596-4.942,2.629C161.51,266.59,162.043,266.467,162.473,266.23z M161.214,291.315
		c-0.539-0.591,1.572-2.363,1.864-1.516c0.007,0.004,0.015,0.02,0.023,0.056c-0.05,0.241-0.067,0.229-0.068,0.157
		C162.778,290.532,161.848,292.086,161.214,291.315z M156.899,271.544c0.932-0.406,4.873-2.778,5.016-1.661
		C161.97,270.16,157.869,271.264,156.899,271.544z M155.453,276.457c-0.32,0.529-0.581,0.813-1.255,0.793
		C154.472,276.691,154.872,276.625,155.453,276.457z M152.16,287.787c0.68-0.509,0.188-0.143,0.008-0.007
		c0.642-0.489,2.088-2.822,1.458-3.834c-0.018,0.33-2.762-0.471-1.373-0.997c0.611-0.201,4.291-2.2,4.869-1.589
		c1.064,1.097-4.582,7.023-5.711,7.535C151.509,288.282,151.846,288.018,152.16,287.787z M155.243,295.31
		c-0.38,0.124-0.81,0.26,0.124-0.051c4.07-1.278,5.539-3.581,7.974-0.479c0.908,1.149,0.756,4.122-1.427,3.432
		c0.595,0.202-6.583-0.486-5.246-1.265c-1.45,0.895-4.238,1.529-5.913,0.776C152.275,296.854,153.635,295.873,155.243,295.31z
		 M149.735,287.741c0.367,0.955,0.096,1.434-1.021,1.609C149.154,288.695,149.435,288.2,149.735,287.741z M92.249,375.128
		C90.406,375.078,93.676,375.078,92.249,375.128L92.249,375.128z M172.065,410.498C171.077,410.343,173.208,410.594,172.065,410.498
		L172.065,410.498z M185.436,493.436c-0.36-0.362-0.14-0.153-0.003-0.017c0.008-0.007,0.057,0.041,0.03,0.031
		C185.524,493.511,185.55,493.54,185.436,493.436z"/>
	<path style="fill:#F2F2F2;" d="M185.434,493.419c-0.002,0.002-0.006,0.002,0.003,0.017c0.019,0.013,0.021,0.012,0.027,0.014
		C185.453,493.439,185.446,493.431,185.434,493.419z"/>
	<path style="fill:#F2F2F2;" d="M92.249,375.128C92.424,375.118,92.025,375.118,92.249,375.128L92.249,375.128z"/>
	<polygon style="fill:#F2F2F2;" points="389.199,312.801 389.196,312.799 389.196,312.806 389.229,312.819 389.205,312.804 
		389.206,312.806 	"/>
	<path style="fill:#F2F2F2;" d="M344.14,282.115c0.012,0.009,0.035,0.028,0.053,0.042
		C344.181,282.12,344.164,282.101,344.14,282.115z"/>
	<path style="fill:#F2F2F2;" d="M446.735,380.912c0.983,3.445,1.897,6.903,2.792,10.371
		C449.735,389.282,448.593,385.485,446.735,380.912z"/>
	<path style="fill:#F2F2F2;" d="M452.991,404.589c-1.208-4.45-2.323-8.886-3.464-13.306c-0.029,0.275-0.081,0.519-0.163,0.724
		c-3.485-9.206-7.627-18.155-11.525-27.205c-0.803-2.012-11.449-17.659-10.21-18.521c1-0.65,13.415,20.63,19.106,34.632
		c-1.821-6.38-3.889-12.716-6.567-18.994c-7.092-16.602-16.424-32.253-27.707-46.348c-10.617-13.305-22.971-25.256-36.61-35.44
		c-6.597-4.961-13.527-9.513-20.748-13.613c-3.419-1.989-6.93-3.838-10.508-5.615c-1.549-0.74-6.996-2.18-7.848-3.495
		c0.089,0.595,3.221,2.187,3.63,2.606c-2.131-0.558-7.716-2.93-7.776-3.297c0.089-0.244,0.555,0,0.505-0.426
		c-3.178-2.002-14.98-6.362-17.345-3.138c0.505-0.634,8.142,8.189,8.344,9.771c0.482,3.445,5.87,7.076,9.312,8.202
		c4.77,1.589,1.186-0.558,3.194-1.668c1.295-0.647,2.468,2.164,3.736,1.543c-0.03-0.033,0-0.066,0.03-0.086
		c-0.313-0.605-0.651-1.185-0.992-1.773c1.02,1.305,8.63,8.908,9.673,7.061c-1.057-2.514-2.686-5.378-5.199-7.733
		c-2.273-2.104-5.847-2.296-8.311-4.42c-1.229-1.083-5.761-4.436-6.279-5.976c6.058,0.201,13.015,12.985,19.06,8.027
		c-0.839-0.575-1.658-1.192-2.448-1.853c1.136,0.311,6.18,1.936,4.44,4.066c-4.776-0.856,4.122,4.04,4.255,4.585
		c-0.875-0.053-1.483-0.756-2.289-0.823c0.34,1.668,5.097,3.396,5.437,6.266c-2.861,0.446-1.625-1.734-3.488,0.595
		c-0.591,0.756-3.188,0.522-4.562,0.624c-3.316,0.258-6.993-5.354-9.454-7.082c1.034,3.138,2.748,4.631,6.253,6.828
		c1.728,0.974-2.382,1.401-2.332,2.808c0.145,0,1.12,0.515,1.103,0.776c0,0.167-0.793-0.53-1.05-0.734
		c0.172,0.513-0.616,5.475-0.674,5.395c2.719,3.151-3.66,2.236-3.789,2.352c0.492,0.723,1.506,1.097,1.761,2.134
		c-1.86,0.132-3.356-0.165-5.179,0.486c2.626,0.78,16.985,7.406,13.854,12.414c-1.021,1.612-10.749-0.413-12.526-0.489
		c-3.782-0.248-0.284,3.594-0.198,4.04c0.621,2.864,2.857,4.116,2.639,7.452c-0.135,2.362,2.263,2.444,3.016,4.43
		c0.621,1.741,0.244,1.886,2.068,2.154c3.204,0.396,3.27-0.099,5.972,2.012c1.916,1.496,2.666-1.397,4.942-1.493
		c5.682-0.244,0.836-1.391,3.561-2.16c3.396-0.928-0.905-6.22-0.74-7.244c0.254-1.394-0.195-2.946,1.661-3.462
		c2.89-0.763-0.789-3.776-0.961-4.575c-0.588-2.368,7.941,2.028,6.94-3.977c4.866,1.529,9.91,5.976,14.461,8.509
		c2.626,1.619,5.305,3.128,7.251,5.665c2.316,3.019-3.307,1.797-3.667,2.669c-0.35,0.938,4.952,3.34,5.843,3.3
		c0.089-0.535-0.644-3.614-0.73-4.136c-0.274-2.121-3.346-4.218-3.131-5.929c0.965,0.102,1.88,0.481,2.632,1.098l0.006,0.003
		c-2.874-3.543-7.521-3.89-10.777-6.483c-1.995-1.619-4.443-2.923-6.375-4.595c-0.023-0.02-3.485-4.42-1.067-3.581
		c3.822,1.328,7.967,5.206,11.878,7.234c3.098,1.628,3.871,2.61,6.147,5.275c0.882,1.034,5.698,6.577,6.722,6.758
		c-0.05-0.053,3.888,3.455,5.45,3.994c-0.697-1.599-1.301-3.634-2.101-4.892c-1.087-1.737-5.503-2.728-5.503-5.321
		c0.974,0.076,1.126-0.971,3.26-0.895c-1.057-0.03,0.947-1.387,1.208-1.472c-4.117-2.368-9.723-9.292-11.233-13.977
		c1.156,0.069,1.78,1.576,3.009,0.793c-0.396-0.793-0.486-1.625-0.396-2.484c0.35,0.347,4.261,3.733,3.475,4.393
		c-1.107-0.02-2.015-0.502-2.791-1.354c0.512,1.982,2.507,2.018,3.307,3.369c0.109-0.522-0.268-0.994,0.178-1.592
		c3.468,1.447,10.412,6.881,11.383,10.729c-1.506,0.149-4.39-3.046-5.407-2.273c-0.337,0.78-0.297,1.556,0.172,2.302
		c-0.476,0.02-0.892,0.116-1.282,0.337c0.552,0.439,0.846,1.021,0.968,1.708c-0.585,0.178-1.14,0.344-1.724,0.499
		c0.492,1.929,10.656,11.614,11.343,10.64c0.231-0.337-0.436-1.328-0.228-1.47c0.522-0.614,2.117,2.167,2.943,1.619
		c0.671-0.423-0.644-1.298,0.076-1.675c1.552-0.783,7.644,11.132,8.387,12.536c2.92,5.52,0.978,2.157-1.229,2.93
		c-0.357,0.565-0.595,1.153-0.641,1.823c-3.551-0.813-7.445-2.851-10.323-4.925c-4.578-3.313,1.463,9.005-1.159,7.462
		c-1.569-0.879-2.494-2.193-4.456-2.368c-2.778-0.264-3.564-3.264-6.108-4.122c-2.124-0.71-10.395-1.444-9.302-5.255
		c0.869-3.234-3.323-5.919-4.704-7.168c-0.717-0.638-9.867,0.558-11.373,1.024c-2.553,0.799-6.537,1.622-7.951,3.984
		c-2.458,4.383-8.047-1.397-10.323-0.476c-1.189,0.456-0.033,4.07-0.631,5.232c-0.918,1.734-3.188,1.86-3.726,3.891
		c-1.014,3.782,1.863,6.844,0.538,10.309c-1.021,2.742-6.349,3.924-6.405,6.187c-0.026,1.202-0.268,2.56-1.358,3.184
		c-2.461,1.377,0.053,4.545-1.467,6.137c-8.146,8.291,2.603,16.407,0.776,25.514c-1.041,5.14-1.648,6.223,0.562,10.636
		c0.489,1.13,0.142,9.13,4.195,5.89c0.492,4.671,6.521,5.625,7.551,10.072c1.328,5.275,6.464,7.581,10.468,10.722
		c1.609,1.259,2.993,2.871,4.843,3.825c3.3,1.691,5.49-0.898,8.688-1.797c2.847-0.809,5.777-0.522,8.473,0.756
		c1.552,0.74,13.038-7.409,16.149-5.86c2.266,1.133,2.408,3.918,3.449,5.896c1.473,2.811,4.661-0.865,6.801,0.069
		c3.726,1.691,4.872,15.466,1.671,17.986c-2.296,1.688,2.624,8.669,3.698,10.591c13.889-11.242,26.577-23.904,37.844-37.772
		c-0.409-4.212-1.005-8.448-1.807-12.735L452.991,404.589z"/>
	<path style="fill:#F2F2F2;" d="M437.839,364.802C438.645,366.638,437.8,364.696,437.839,364.802L437.839,364.802z"/>
	<path style="fill:#F2F2F2;" d="M398.048,308.827c0.008,0.005,0.016,0.011,0.024,0.015
		C398.09,308.818,398.075,308.818,398.048,308.827z"/>
	<path style="fill:#F2F2F2;" d="M194.758,259.683c-0.015,0.007-0.025,0.014-0.039,0.02c0.022-0.002,0.044-0.005,0.064-0.008
		C194.773,259.692,194.768,259.687,194.758,259.683z"/>
	<path style="fill:#F2F2F2;" d="M155.367,295.259c-0.043,0.014-0.082,0.036-0.124,0.051
		C155.54,295.213,155.806,295.123,155.367,295.259z"/>
	<path style="fill:#F2F2F2;" d="M191.478,287.496c-0.032,0.009-0.281,0.107-0.62,0.254
		C190.772,287.874,191.031,287.907,191.478,287.496z"/>
	<path style="fill:#F2F2F2;" d="M211.75,280.569C210.832,281.306,212.173,281.128,211.75,280.569L211.75,280.569z"/>
	<path style="fill:#F2F2F2;" d="M201.246,287.992C201.018,287.959,201.299,288.002,201.246,287.992L201.246,287.992z"/>
	<path style="fill:#F2F2F2;" d="M153.772,283.8c0.759-0.474,0.836-0.817,0.224-1.051c-0.706,0.38-0.838,0.739-0.37,1.082
		c-0.025,0.013-0.024,0.026,0.043,0.035C153.835,283.813,153.825,283.798,153.772,283.8z"/>
	<path style="fill:#F2F2F2;" d="M165.421,300.31c0.195,0.531,0.606,0.664,1.237,0.329c0.647-0.72-1.219-0.522-1.308-0.505
		C165.356,300.291,165.392,300.326,165.421,300.31z"/>
	<path style="fill:#F2F2F2;" d="M153.59,283.863c0.018,0.023,0.02,0.057,0.035,0.082
		C153.627,283.923,153.616,283.896,153.59,283.863z"/>
	<path style="fill:#F2F2F2;" d="M163.078,289.798c-0.026-0.014-0.046,0.135-0.045,0.213c0.04-0.081,0.064-0.139,0.068-0.157
		C163.095,289.832,163.084,289.818,163.078,289.798z"/>
	<path style="fill:#F2F2F2;" d="M210.303,247.177c-1.813-0.472-2.864-0.608-5.166,1.004c1.437-0.557,3.074-0.092,4.522-0.667
		C209.434,247.693,209.429,247.77,210.303,247.177z"/>
	<path style="fill:#F2F2F2;" d="M148.999,382.639c-1.384-0.756-2.824-1.272-4.393-0.367c0.495,0.638,4.998,2.679,5.341,1.239
		C149.851,382.979,149.544,382.685,148.999,382.639z"/>
	<path style="fill:#F2F2F2;" d="M131.217,370.361c2.821,0.254,4.403-3.564,7.521-2.283c-0.119,0.393-0.39,0.671-0.783,0.819
		c0.836,2.411,9.923,3.105,11.247,6.141c0.261,0.618-2.96,2.359-1.017,2.16c3.059-0.423,6.134-0.456,9.183-0.832
		C151.542,371.805,137.071,360.471,131.217,370.361z"/>
	<path style="fill:#F2F2F2;" d="M155.744,382.464C155.46,382.358,156.335,382.755,155.744,382.464L155.744,382.464z"/>
	<path style="fill:#F2F2F2;" d="M135.898,370.814c-0.324-1.239-1.348,0.433-1.014,1.007c0.605,0.02,0.954-0.311,1.008-0.98
		C135.918,370.933,135.951,371.034,135.898,370.814z"/>
	<path style="fill:#F2F2F2;" d="M150.201,360.078c-1.609,2.104-0.7,2.134-0.059,4.512
		C150.805,363.652,150.805,362.304,150.201,360.078z"/>
	<path style="fill:#F2F2F2;" d="M202.471,249.849c0.248-0.03,0.502-0.063,0.73-0.096
		C202.953,249.671,202.689,249.691,202.471,249.849z"/>
	<path style="fill:#F2F2F2;" d="M108.174,447.157c0.003-0.008,0.006-0.025,0.007-0.069
		C107.607,445.186,108.013,448.976,108.174,447.157z"/>
	<path style="fill:#F2F2F2;" d="M190.523,410.839c0.182-0.102,0.311-0.155,0.436-0.244
		C190.735,410.614,190.593,410.683,190.523,410.839z"/>
	<path style="fill:#F2F2F2;" d="M169.786,379.785c0.225-0.426,0.687-0.099,0.875-0.459c-2.302-0.994-9.583-4.126-11.792-1.443
		c2.405,0.737,1.292,1.761,2.514,3.667c-0.836,0.334-7.085,0.287-5.639,0.915c2.626,1.259,5.843-0.704,7.812,2.111
		c2.491-1.401,4.446-3.505,7.977-1.995C174.797,383.908,169.971,379.934,169.786,379.785z"/>
	<path style="fill:#F2F2F2;" d="M193.536,408.18c-1.535,0.115-2.284,2.435-2.18,2.499c-0.008,0-0.009,0.002,0,0.004
		c1.66,0.201,0.428,0.033,0.081,0.001C192.416,410.711,195.282,409.286,193.536,408.18z"/>
	<path style="fill:#F2F2F2;" d="M214.419,256.515c-1.969-0.026-2.563,0.234-3.155,1.265
		C212.414,257.817,213.431,257.625,214.419,256.515z"/>
	<path style="fill:#F2F2F2;" d="M197.008,266.659c0.875-0.277,1.374-0.568,1.754-1.143
		C198.071,265.579,197.457,265.721,197.008,266.659z"/>
	<path style="fill:#F2F2F2;" d="M193.599,265.484c1.212,0.066,2.081-0.387,3.204-1.001
		C195.452,264.516,194.444,264.483,193.599,265.484z"/>
	<path style="fill:#F2F2F2;" d="M106.734,447.412c0.026,0.062,0.036,0.077,0.004-0.026c-0.126-0.32-0.151-0.375-0.139-0.334
		c-0.345-0.851-0.71-1.672-1.054-2.507c-0.535,0.611-0.39,3.511-0.093,3.749C106.256,448.604,106.661,448.282,106.734,447.412z"/>
	<path style="fill:#F2F2F2;" d="M212.388,268.919c-0.102-0.033-0.188-0.109-0.244-0.066
		C211.724,269.058,212.156,269.058,212.388,268.919z"/>
	<path style="fill:#F2F2F2;" d="M206.995,299.108c-0.005-0.001-0.008-0.001-0.014-0.002c0.001,0,0.005,0.002,0.006,0.002
		C206.989,299.108,206.992,299.107,206.995,299.108z"/>
	<path style="fill:#F2F2F2;" d="M206.995,299.108c0.096,0.016,0.149,0.026-0.008-0.001c-0.458-0.078-0.178-0.031-0.006-0.002
		c-0.127-0.022-2.285-0.951-2.303-1.144c-0.303,0.317,1.899,3.395,3.812,1.076C207.84,299.08,207.428,299.178,206.995,299.108z"/>
	<path style="fill:#F2F2F2;" d="M204.678,297.962c0.01-0.01,0.015-0.026,0.03-0.031
		C204.684,297.937,204.676,297.948,204.678,297.962z"/>
	<path style="fill:#F2F2F2;" d="M212.113,292.527c-1.655-1.225-3.174-1.8-5.024-1.757
		C208.49,292.104,209.897,292.956,212.113,292.527z"/>
</g>
<path style="fill:#FF6D3B;" d="M388.113,228.471c-18.376,0-33.297,14.917-33.297,33.29c0,7.663,2.795,14.528,6.9,20.292
	c26.396,36.986,26.396,36.986,26.396,36.986s0,0,26.396-36.993c4.103-5.758,6.894-12.645,6.894-20.285
	C421.402,243.388,406.505,228.471,388.113,228.471z"/>
<path style="fill:#FFFFFF;" d="M408.982,261.761c0,11.541-9.328,20.876-20.87,20.876c-11.518,0-20.876-9.335-20.876-20.876
	c0-11.522,9.358-20.87,20.876-20.87C399.654,240.891,408.982,250.239,408.982,261.761z"/>
<g>
</g>
<g>
</g>
<g>
</g>
<g>
</g>
<g>
</g>
<g>
</g>
<g>
</g>
<g>
</g>
<g>
</g>
<g>
</g>
<g>
</g>
<g>
</g>
<g>
</g>
<g>
</g>
<g>
</g>
</svg>
